<svg xmlns="http://www.w3.org/2000/svg" width="1600" height="1120" viewBox="0 0 1600 1120" role="img" aria-labelledby="title desc">
  <title id="title">12 enterprise Angular implementation patterns</title>
  <desc id="desc">An infographic of twelve enterprise Angular patterns: feature boundaries, route-scoped providers, facade and application layer, ports and adapters, BFF, typed contracts, explicit state ownership, snapshot plus delta real-time integration, error model, runtime configuration, observability, and architecture enforcement.</desc>
  <defs><style>
    .bg{fill:#f7f9fc}.card{fill:#fff;stroke:#d9e2ef;stroke-width:2}.title{font:700 52px Arial,sans-serif;fill:#12213a}.sub{font:400 23px Arial,sans-serif;fill:#50627a}.ct{font:700 21px Arial,sans-serif;fill:#15233a}.body{font:400 17px Arial,sans-serif;fill:#53647b}.benefit{font:700 15px Arial,sans-serif;fill:#1f6f5f}.badge{fill:#1769e0}.bn{font:700 22px Arial,sans-serif;fill:#fff}.chip{fill:#ffe98a}.chiptext{font:700 15px Arial,sans-serif;fill:#5d4a00}.line{stroke:#1769e0;stroke-width:4;stroke-linecap:round;fill:none}.muted{stroke:#9fb0c3;stroke-width:3;stroke-linecap:round;fill:none}.footer{font:700 19px Arial,sans-serif;fill:#18304f}
  </style></defs>
  <rect class="bg" width="1600" height="1120" rx="28"/>
  <circle cx="82" cy="76" r="40" fill="#e8f1ff" stroke="#1769e0" stroke-width="3"/>
  <rect x="61" y="55" width="42" height="42" rx="8" fill="none" stroke="#1769e0" stroke-width="4"/>
  <path d="M70 70h24M70 82h24M82 58v38" class="line"/>
  <text x="145" y="73" class="title">12 Enterprise Angular Implementation Patterns</text>
  <text x="148" y="110" class="sub">Organize by business capability, control state lifetime, isolate infrastructure, and enforce boundaries.</text>

  <!-- row 1 -->
  <g transform="translate(50 155)"><rect class="card" width="365" height="205" rx="20"/><rect class="badge" x="18" y="18" width="42" height="40" rx="8"/><text class="bn" x="39" y="46" text-anchor="middle">1</text><rect class="chip" x="74" y="21" width="175" height="34" rx="8"/><text class="chiptext" x="162" y="44" text-anchor="middle">Feature boundaries</text><rect x="25" y="78" width="90" height="70" rx="10" fill="#e8f1ff" stroke="#1769e0" stroke-width="2"/><rect x="135" y="78" width="90" height="70" rx="10" fill="#edf9f4" stroke="#1f806d" stroke-width="2"/><rect x="245" y="78" width="90" height="70" rx="10" fill="#fff6d4" stroke="#bc8b00" stroke-width="2"/><text class="body" x="70" y="120" text-anchor="middle">Orders</text><text class="body" x="180" y="120" text-anchor="middle">Reports</text><text class="body" x="290" y="120" text-anchor="middle">Admin</text><text class="benefit" x="20" y="180">Independent capability ownership</text></g>
  <g transform="translate(428 155)"><rect class="card" width="365" height="205" rx="20"/><rect class="badge" x="18" y="18" width="42" height="40" rx="8"/><text class="bn" x="39" y="46" text-anchor="middle">2</text><rect class="chip" x="74" y="21" width="205" height="34" rx="8"/><text class="chiptext" x="177" y="44" text-anchor="middle">Route-scoped providers</text><path d="M40 95h110l30 35 30-35h110" class="muted"/><rect x="100" y="116" width="165" height="42" rx="10" fill="#edf9f4" stroke="#1f806d" stroke-width="2"/><text class="body" x="182" y="143" text-anchor="middle">Feature store + adapters</text><text class="benefit" x="20" y="180">State created and destroyed with route</text></g>
  <g transform="translate(806 155)"><rect class="card" width="365" height="205" rx="20"/><rect class="badge" x="18" y="18" width="42" height="40" rx="8"/><text class="bn" x="39" y="46" text-anchor="middle">3</text><rect class="chip" x="74" y="21" width="190" height="34" rx="8"/><text class="chiptext" x="169" y="44" text-anchor="middle">Facade / application</text><rect x="25" y="88" width="85" height="55" rx="10" fill="#e8f1ff"/><text class="body" x="67" y="120" text-anchor="middle">Page</text><path d="M115 115h45" class="line"/><rect x="165" y="78" width="105" height="75" rx="10" fill="#fff6d4" stroke="#bc8b00" stroke-width="2"/><text class="body" x="218" y="109" text-anchor="middle">Facade</text><text class="body" x="218" y="133" text-anchor="middle">use cases</text><path d="M275 115h45" class="line"/><text class="benefit" x="20" y="180">UI stays thin; workflows are testable</text></g>
  <g transform="translate(1184 155)"><rect class="card" width="366" height="205" rx="20"/><rect class="badge" x="18" y="18" width="42" height="40" rx="8"/><text class="bn" x="39" y="46" text-anchor="middle">4</text><rect class="chip" x="74" y="21" width="165" height="34" rx="8"/><text class="chiptext" x="157" y="44" text-anchor="middle">Ports + adapters</text><circle cx="180" cy="112" r="38" fill="#e8f1ff" stroke="#1769e0" stroke-width="3"/><text class="body" x="180" y="118" text-anchor="middle">Port</text><rect x="25" y="85" width="95" height="55" rx="10" fill="#edf9f4"/><text class="body" x="72" y="118" text-anchor="middle">HTTP</text><rect x="245" y="85" width="95" height="55" rx="10" fill="#f4efff"/><text class="body" x="292" y="118" text-anchor="middle">Mock</text><path d="M120 112h20M220 112h25" class="muted"/><text class="benefit" x="20" y="180">Replace infrastructure without UI rewrite</text></g>

  <!-- row 2 -->
  <g transform="translate(50 380)"><rect class="card" width="365" height="205" rx="20"/><rect class="badge" x="18" y="18" width="42" height="40" rx="8"/><text class="bn" x="39" y="46" text-anchor="middle">5</text><rect class="chip" x="74" y="21" width="180" height="34" rx="8"/><text class="chiptext" x="164" y="44" text-anchor="middle">Backend for Frontend</text><rect x="25" y="86" width="80" height="60" rx="10" fill="#e8f1ff"/><text class="body" x="65" y="121" text-anchor="middle">Angular</text><path d="M110 116h42" class="line"/><rect x="158" y="78" width="85" height="76" rx="10" fill="#edf9f4" stroke="#1f806d" stroke-width="2"/><text class="body" x="200" y="108" text-anchor="middle">BFF</text><text class="body" x="200" y="132" text-anchor="middle">session</text><path d="M248 116h42" class="line"/><rect x="296" y="86" width="45" height="60" rx="10" fill="#f4efff"/><text class="body" x="319" y="121" text-anchor="middle">API</text><text class="benefit" x="20" y="180">Token isolation + UI-specific API shape</text></g>
  <g transform="translate(428 380)"><rect class="card" width="365" height="205" rx="20"/><rect class="badge" x="18" y="18" width="42" height="40" rx="8"/><text class="bn" x="39" y="46" text-anchor="middle">6</text><rect class="chip" x="74" y="21" width="175" height="34" rx="8"/><text class="chiptext" x="162" y="44" text-anchor="middle">Typed boundaries</text><rect x="30" y="85" width="80" height="60" rx="10" fill="#f4efff"/><text class="body" x="70" y="121" text-anchor="middle">DTO</text><path d="M115 115h35" class="muted"/><rect x="155" y="75" width="95" height="80" rx="10" fill="#fff6d4" stroke="#bc8b00" stroke-width="2"/><text class="body" x="202" y="107" text-anchor="middle">Mapper</text><text class="body" x="202" y="132" text-anchor="middle">validate</text><path d="M255 115h35" class="muted"/><rect x="295" y="85" width="45" height="60" rx="10" fill="#e8f1ff"/><text class="body" x="318" y="121" text-anchor="middle">VM</text><text class="benefit" x="20" y="180">Transport change stays at the edge</text></g>
  <g transform="translate(806 380)"><rect class="card" width="365" height="205" rx="20"/><rect class="badge" x="18" y="18" width="42" height="40" rx="8"/><text class="bn" x="39" y="46" text-anchor="middle">7</text><rect class="chip" x="74" y="21" width="190" height="34" rx="8"/><text class="chiptext" x="169" y="44" text-anchor="middle">Explicit state ownership</text><rect x="28" y="82" width="70" height="62" rx="10" fill="#e8f1ff"/><text class="body" x="63" y="118" text-anchor="middle">URL</text><rect x="108" y="82" width="70" height="62" rx="10" fill="#edf9f4"/><text class="body" x="143" y="118" text-anchor="middle">Form</text><rect x="188" y="82" width="70" height="62" rx="10" fill="#fff6d4"/><text class="body" x="223" y="118" text-anchor="middle">Feature</text><rect x="268" y="82" width="70" height="62" rx="10" fill="#f4efff"/><text class="body" x="303" y="118" text-anchor="middle">Server</text><text class="benefit" x="20" y="180">No duplicated source of truth</text></g>
  <g transform="translate(1184 380)"><rect class="card" width="366" height="205" rx="20"/><rect class="badge" x="18" y="18" width="42" height="40" rx="8"/><text class="bn" x="39" y="46" text-anchor="middle">8</text><rect class="chip" x="74" y="21" width="195" height="34" rx="8"/><text class="chiptext" x="172" y="44" text-anchor="middle">Snapshot + delta</text><rect x="26" y="85" width="100" height="62" rx="10" fill="#e8f1ff"/><text class="body" x="76" y="121" text-anchor="middle">Snapshot</text><path d="M132 116h40" class="line"/><circle cx="200" cy="116" r="28" fill="#fff6d4" stroke="#bc8b00" stroke-width="2"/><text class="body" x="200" y="121" text-anchor="middle">v42</text><path d="M230 116h40" class="line"/><rect x="278" y="85" width="64" height="62" rx="10" fill="#edf9f4"/><text class="body" x="310" y="110" text-anchor="middle">Δ43</text><text class="body" x="310" y="134" text-anchor="middle">Δ44</text><text class="benefit" x="20" y="180">Recoverable real-time read model</text></g>

  <!-- row 3 -->
  <g transform="translate(50 605)"><rect class="card" width="365" height="205" rx="20"/><rect class="badge" x="18" y="18" width="42" height="40" rx="8"/><text class="bn" x="39" y="46" text-anchor="middle">9</text><rect class="chip" x="74" y="21" width="170" height="34" rx="8"/><text class="chiptext" x="159" y="44" text-anchor="middle">Stable error model</text><path d="M45 95h260M45 125h220M45 155h275" class="muted"/><circle cx="320" cy="95" r="10" fill="#d64c4c"/><circle cx="280" cy="125" r="10" fill="#bc8b00"/><circle cx="335" cy="155" r="10" fill="#1769e0"/><text class="benefit" x="20" y="180">Consistent retry, UX and telemetry policy</text></g>
  <g transform="translate(428 605)"><rect class="card" width="365" height="205" rx="20"/><rect class="badge" x="18" y="18" width="42" height="40" rx="8"/><text class="bn" x="39" y="46" text-anchor="middle">10</text><rect class="chip" x="74" y="21" width="175" height="34" rx="8"/><text class="chiptext" x="162" y="44" text-anchor="middle">Runtime configuration</text><rect x="32" y="78" width="300" height="82" rx="12" fill="#f2f5f9" stroke="#a8b7c9" stroke-width="2"/><text class="body" x="50" y="104">apiBaseUrl: /bff</text><text class="body" x="50" y="129">featureFlags: validated</text><text class="body" x="50" y="154">release: 2026.07.24</text><text class="benefit" x="20" y="180">Build once; configure safely per environment</text></g>
  <g transform="translate(806 605)"><rect class="card" width="365" height="205" rx="20"/><rect class="badge" x="18" y="18" width="42" height="40" rx="8"/><text class="bn" x="39" y="46" text-anchor="middle">11</text><rect class="chip" x="74" y="21" width="165" height="34" rx="8"/><text class="chiptext" x="157" y="44" text-anchor="middle">Observability</text><path d="M35 146l55-44 48 22 45-58 55 36 75-52" class="line"/><circle cx="90" cy="102" r="6" fill="#1769e0"/><circle cx="183" cy="66" r="6" fill="#1769e0"/><circle cx="313" cy="50" r="6" fill="#1769e0"/><text class="benefit" x="20" y="180">Correlated routes, requests, errors and vitals</text></g>
  <g transform="translate(1184 605)"><rect class="card" width="366" height="205" rx="20"/><rect class="badge" x="18" y="18" width="42" height="40" rx="8"/><text class="bn" x="39" y="46" text-anchor="middle">12</text><rect class="chip" x="74" y="21" width="205" height="34" rx="8"/><text class="chiptext" x="177" y="44" text-anchor="middle">Automated architecture rules</text><rect x="30" y="82" width="95" height="62" rx="10" fill="#e8f1ff"/><text class="body" x="77" y="118" text-anchor="middle">Feature</text><path d="M130 113h48" class="line"/><rect x="183" y="82" width="95" height="62" rx="10" fill="#edf9f4"/><text class="body" x="230" y="108" text-anchor="middle">Public</text><text class="body" x="230" y="132" text-anchor="middle">API</text><path d="M283 113h48" class="line"/><text class="benefit" x="20" y="180">CI rejects forbidden dependency direction</text></g>

  <rect x="50" y="840" width="1500" height="195" rx="22" fill="#eef5ff" stroke="#c7d8ee" stroke-width="2"/>
  <text x="80" y="885" class="ct">Reference dependency direction</text>
  <rect x="85" y="920" width="190" height="70" rx="12" fill="#fff" stroke="#1769e0" stroke-width="2"/><text class="body" x="180" y="950" text-anchor="middle">Page / route</text><text class="body" x="180" y="975" text-anchor="middle">composition</text>
  <path d="M285 955h90" class="line"/><rect x="385" y="920" width="210" height="70" rx="12" fill="#fff6d4" stroke="#bc8b00" stroke-width="2"/><text class="body" x="490" y="950" text-anchor="middle">Application / facade</text><text class="body" x="490" y="975" text-anchor="middle">use cases</text>
  <path d="M605 955h90" class="line"/><rect x="705" y="920" width="190" height="70" rx="12" fill="#edf9f4" stroke="#1f806d" stroke-width="2"/><text class="body" x="800" y="950" text-anchor="middle">Domain + state</text><text class="body" x="800" y="975" text-anchor="middle">policies</text>
  <path d="M905 955h90" class="line"/><rect x="1005" y="920" width="205" height="70" rx="12" fill="#f4efff" stroke="#7b55c7" stroke-width="2"/><text class="body" x="1108" y="950" text-anchor="middle">Ports / contracts</text><text class="body" x="1108" y="975" text-anchor="middle">stable boundary</text>
  <path d="M1220 955h90" class="line"/><rect x="1320" y="920" width="190" height="70" rx="12" fill="#fff" stroke="#a8b7c9" stroke-width="2"/><text class="body" x="1415" y="950" text-anchor="middle">HTTP / BFF /</text><text class="body" x="1415" y="975" text-anchor="middle">storage adapters</text>
  <text x="800" y="1078" text-anchor="middle" class="footer">Enterprise architecture is not more folders—it is explicit ownership, replaceable boundaries, measurable behavior, and enforceable rules.</text>
</svg>